<?xml version="1.0" standalone="no"?>
<!DOCTYPE svg PUBLIC "-//W3C//DTD SVG 20010904//EN"
 "http://www.w3.org/TR/2001/REC-SVG-20010904/DTD/svg10.dtd">
<svg version="1.0" xmlns="http://www.w3.org/2000/svg"
 width="1280.000000pt" height="1197.000000pt" viewBox="0 0 1280.000000 1197.000000"
 preserveAspectRatio="xMidYMid meet">
<metadata>
Created by potrace 1.15, written by Peter Selinger 2001-2017
</metadata>
<g transform="translate(0.000000,1197.000000) scale(0.100000,-0.100000)"
fill="#000000" stroke="none">
<path d="M4095 11951 c-39 -23 -84 -76 -90 -104 -2 -12 -6 -49 -7 -82 -3 -52
-10 -69 -50 -128 -54 -78 -72 -125 -66 -173 3 -26 0 -34 -12 -34 -31 0 -61 47
-93 145 -36 110 -64 143 -111 131 -44 -11 -61 -50 -61 -141 0 -116 39 -218
130 -344 30 -41 24 -53 -51 -86 -29 -13 -60 -34 -69 -48 -15 -23 -15 -28 -1
-55 8 -16 31 -48 50 -71 34 -40 44 -61 30 -61 -23 0 -173 45 -234 70 -111 46
-197 100 -296 188 -49 43 -97 81 -107 85 -10 4 -34 0 -54 -8 -19 -8 -37 -15
-38 -15 -2 0 -17 30 -34 66 -25 54 -53 87 -146 178 -124 121 -162 181 -174
280 -6 48 -8 52 -43 63 -130 43 -235 -133 -198 -334 14 -76 61 -209 126 -357
24 -54 44 -101 44 -104 0 -9 -82 9 -114 25 -17 8 -76 46 -131 83 -55 37 -122
79 -149 95 -46 27 -49 28 -62 10 -7 -10 -15 -23 -17 -28 -2 -7 -18 -5 -44 6
-59 23 -70 7 -49 -66 26 -90 64 -132 226 -255 58 -43 140 -134 140 -155 0 -20
-32 -16 -67 7 -71 48 -114 28 -98 -47 22 -99 84 -162 217 -218 111 -47 180
-92 172 -112 -3 -8 -15 -20 -28 -26 -21 -12 -74 -1 -214 44 -16 6 -52 -30 -52
-51 0 -9 33 -51 74 -93 77 -79 85 -92 73 -127 -18 -53 -99 -56 -252 -12 -87
25 -129 32 -202 32 -52 1 -97 -4 -103 -10 -7 -7 0 -25 25 -60 20 -27 62 -96
93 -153 31 -58 81 -130 110 -162 74 -80 121 -100 265 -110 131 -9 202 -35 202
-74 0 -18 -9 -21 -85 -25 -70 -4 -85 -8 -88 -23 -6 -31 49 -125 104 -177 90
-85 210 -131 403 -152 110 -12 137 -26 126 -62 -27 -86 -19 -108 53 -148 31
-18 112 -86 180 -151 143 -138 193 -167 289 -167 43 0 84 8 129 25 105 40 229
30 212 -17 -10 -24 -95 -75 -161 -97 -34 -11 -102 -27 -152 -36 -125 -21 -124
-21 -151 -81 -39 -89 -31 -115 49 -148 57 -23 46 -44 -46 -88 -76 -37 -77 -38
-77 -75 0 -119 75 -207 201 -239 95 -24 102 -30 133 -133 15 -49 34 -95 42
-102 14 -11 122 -8 192 7 30 6 33 4 46 -27 7 -19 16 -60 20 -92 7 -63 27 -111
49 -120 24 -9 250 71 319 113 37 22 73 40 81 40 20 0 27 -31 27 -132 0 -126 4
-128 190 -106 24 3 26 -2 50 -94 14 -54 31 -103 38 -110 15 -15 22 -13 277 77
217 76 292 89 355 60 68 -31 101 -135 65 -205 -21 -41 -65 -72 -179 -124 -62
-29 -117 -63 -147 -91 l-48 -45 -113 0 c-267 0 -430 -65 -770 -307 -271 -193
-326 -271 -357 -506 -13 -93 -26 -120 -100 -212 -74 -90 -130 -174 -169 -251
l-31 -61 -63 -6 c-99 -9 -152 -32 -298 -128 -178 -116 -217 -133 -305 -134
-92 0 -121 15 -232 123 -96 94 -157 133 -249 157 -93 25 -286 29 -475 11 -174
-17 -343 -21 -400 -9 -24 4 -50 24 -89 66 -150 164 -200 197 -301 197 -147 0
-264 -115 -564 -555 -121 -177 -183 -253 -261 -322 -61 -53 -72 -69 -130 -189
-117 -246 -164 -428 -134 -516 28 -80 122 -121 213 -94 l27 8 0 -56 c0 -72 24
-92 100 -83 56 7 130 41 130 61 0 7 16 46 36 86 72 143 198 249 459 385 72 38
165 90 207 117 l77 49 33 -17 c18 -9 114 -67 213 -129 339 -211 514 -303 786
-413 114 -46 133 -51 201 -50 94 1 121 -11 303 -131 76 -51 161 -104 188 -118
69 -35 162 -52 225 -42 62 9 70 14 152 79 112 89 186 119 358 145 202 29 311
66 602 200 294 135 463 196 641 230 96 18 95 19 146 -74 101 -183 217 -325
436 -538 217 -209 306 -275 435 -318 l67 -22 11 -54 c6 -30 25 -99 43 -154 46
-148 44 -161 -40 -291 -204 -314 -278 -604 -212 -827 8 -29 30 -82 49 -119
l34 -67 -31 -76 c-58 -146 -70 -265 -44 -439 l15 -100 -25 -35 c-14 -20 -57
-74 -96 -121 -94 -113 -142 -212 -147 -299 -2 -37 1 -86 7 -109 15 -53 64
-110 116 -133 49 -23 153 -24 210 -4 22 8 51 15 64 15 27 0 277 -127 367 -186
102 -67 182 -151 233 -244 47 -85 47 -85 111 -108 97 -36 220 -58 415 -78 140
-14 183 -15 214 -5 52 15 112 84 136 155 17 49 18 62 7 104 -24 87 -92 138
-262 197 -123 43 -157 62 -228 129 -87 82 -143 194 -187 373 -12 50 -29 88
-56 124 -55 74 -65 109 -46 167 9 26 39 88 68 137 81 142 234 441 275 540 52
127 98 265 124 375 19 78 33 109 76 172 46 68 53 84 59 145 10 103 30 165 101
303 124 244 135 390 40 540 -62 98 -74 132 -91 252 -40 299 -135 548 -414
1087 -73 139 -134 266 -137 280 -5 24 2 33 70 84 193 145 321 324 406 567 29
82 40 101 84 143 72 68 195 147 311 201 117 55 137 72 175 147 16 30 55 85 88
121 33 36 64 74 69 83 9 15 17 15 69 6 111 -21 285 -23 525 -7 282 19 430 20
551 4 l89 -12 57 56 c31 30 109 97 172 149 63 51 148 122 188 156 40 35 79 63
88 63 8 0 31 -7 51 -15 96 -41 211 -24 278 40 45 42 45 67 -3 141 -54 82 -126
145 -213 187 -106 51 -151 60 -288 56 -65 -2 -117 -1 -115 2 2 4 19 14 38 23
26 12 65 16 166 16 141 0 209 12 235 40 15 17 14 20 -14 52 -38 44 -131 94
-197 105 -71 13 -192 -2 -290 -36 -148 -51 -270 -141 -416 -310 l-46 -54 -49
8 c-26 4 -127 27 -223 51 -143 36 -293 64 -344 64 -17 0 2 154 29 230 40 112
45 115 220 150 370 72 696 104 1405 135 l145 7 80 48 c44 26 145 80 225 120
202 101 272 144 352 218 44 40 75 61 85 58 8 -3 16 -6 18 -6 8 0 202 -266 244
-333 23 -37 122 -217 220 -400 264 -492 414 -754 589 -1032 340 -536 403 -657
535 -1026 65 -179 109 -245 195 -292 28 -15 71 -30 97 -34 l47 -6 -7 34 c-13
57 -108 287 -175 419 -107 213 -159 370 -196 595 -22 128 -24 459 -6 795 20
354 -2 665 -63 900 -75 291 -191 463 -415 613 l-95 63 -2 85 c-1 46 -4 185 -6
309 -3 124 -5 228 -6 232 -1 4 -18 16 -39 27 -48 24 -62 66 -62 181 0 79 -1
83 -33 115 -41 41 -114 64 -230 72 -84 6 -89 7 -111 37 -31 43 -95 188 -149
336 -64 176 -80 211 -143 309 -65 98 -177 214 -279 285 -145 102 -390 218
-712 336 -236 87 -466 209 -644 341 -60 44 -71 59 -113 142 -25 50 -82 139
-126 197 -145 190 -143 185 -150 269 -11 125 -64 201 -140 201 -22 0 -48 -8
-63 -20 -25 -20 -87 -123 -87 -145 0 -12 25 -47 131 -190 37 -49 79 -115 95
-145 58 -117 95 -168 148 -208 38 -29 77 -76 137 -164 45 -68 107 -146 135
-175 43 -42 67 -79 127 -205 78 -163 217 -420 355 -658 354 -611 542 -953 583
-1061 30 -78 18 -86 -161 -119 -60 -10 -229 -33 -376 -50 -455 -53 -597 -92
-748 -205 -57 -42 -61 -43 -110 -37 -55 8 -394 9 -651 3 -165 -4 -295 5 -295
20 0 23 55 34 211 39 180 7 210 15 251 71 11 14 62 149 112 300 51 151 107
302 124 336 54 106 42 138 -91 234 -122 88 -131 107 -101 200 26 80 15 188
-36 344 -52 159 -55 225 -16 334 14 40 26 90 26 111 0 129 -147 316 -320 409
-98 52 -166 50 -301 -9 -80 -35 -153 -39 -214 -11 -22 10 -83 44 -135 76 -119
72 -168 93 -233 101 -77 9 -147 -8 -309 -75 -80 -34 -168 -64 -194 -67 -57 -8
-79 -24 -87 -63 -8 -39 -52 -88 -86 -96 -18 -4 -73 6 -147 25 -224 58 -363 50
-439 -25 -19 -20 -38 -47 -41 -61 -16 -65 59 -132 137 -121 21 3 40 3 42 0 3
-2 -8 -33 -24 -67 -39 -82 -46 -150 -25 -212 23 -68 20 -97 -11 -129 -66 -65
-157 -90 -256 -69 -82 17 -120 6 -160 -47 -36 -49 -41 -72 -19 -99 17 -21 22
-22 62 -12 55 14 68 8 76 -36 4 -22 21 -50 45 -73 22 -21 39 -45 39 -53 0 -8
-25 -36 -56 -62 -30 -26 -61 -61 -68 -77 l-12 -30 -48 54 c-65 71 -115 182
-161 354 -49 187 -84 273 -159 398 -113 189 -259 357 -404 467 -37 28 -135 84
-218 126 -174 87 -230 127 -297 209 -69 86 -181 265 -277 445 -98 184 -135
240 -158 240 -9 0 -31 -8 -47 -19z m5597 -1194 c53 -39 183 -126 289 -192 374
-232 496 -321 627 -459 150 -159 231 -324 262 -536 7 -48 3 -68 -28 -165 -31
-98 -35 -122 -36 -220 0 -81 4 -119 16 -147 l16 -36 -36 -7 c-20 -4 -64 -18
-98 -32 -110 -44 -100 -53 -243 232 -132 262 -172 334 -411 740 -182 310 -288
501 -381 687 -39 78 -78 151 -86 160 -15 17 -12 48 4 48 4 0 51 -33 105 -73z
m-3572 -1462 l22 -20 -25 -20 c-14 -11 -43 -32 -65 -48 -23 -15 -49 -45 -61
-70 -22 -44 -28 -121 -12 -132 5 -3 50 4 100 15 104 23 148 25 202 8 92 -27
89 -77 -5 -92 -68 -10 -87 -34 -65 -82 25 -51 90 -74 235 -84 169 -12 225 -20
218 -31 -3 -5 -14 -9 -24 -9 -10 0 -61 -29 -114 -64 -171 -114 -202 -107 -476
113 -69 55 -136 116 -149 136 -34 51 -38 123 -12 218 12 43 21 98 21 122 0 57
17 66 117 62 54 -2 76 -7 93 -22z m5173 -941 c56 -14 129 -29 162 -32 l60 -7
5 -40 c8 -55 12 -60 89 -100 242 -127 377 -347 446 -723 24 -137 48 -348 60
-537 10 -155 33 -337 61 -485 27 -141 28 -205 1 -257 l-15 -27 -23 54 c-64
153 -169 331 -294 500 -35 47 -73 110 -85 140 -46 119 -175 358 -341 635 -253
424 -415 755 -407 836 7 72 108 87 281 43z"/>
</g>
</svg>
