<svg width="969.216259765625px" height="226.42255859374998px" xmlns="http://www.w3.org/2000/svg" viewBox="-234.60812988281248 -38.21127929687499 969.216259765625 226.42255859374998" style="background: rgba(0, 0, 0, 0);" preserveAspectRatio="xMidYMid"><defs><linearGradient id="editing-outline-gradient" x1="-0.41354545764260087" x2="1.4135454576426008" y1="0.09326335692419985" y2="0.9067366430758002"><stop offset="0" stop-color="#ee4208"></stop><stop offset="1" stop-color="#4139ff"></stop></linearGradient><filter id="editing-outline" x="-100%" y="-100%" width="300%" height="300%"><feMorphology in="SourceGraphic" operator="dilate" radius="1" result="outline"></feMorphology><feComposite operator="out" in="outline" in2="SourceAlpha"></feComposite></filter></defs><g filter="url(#editing-outline)"><g transform="translate(-95.00844726711512, 149.50875091552734)"><path d="M82.81-73.30L82.81-73.30L82.81-73.30Q75.75-66.93 66.00-51.35L66.00-51.35L66.00-51.35Q56.25-35.77 50.62-24.70L50.62-24.70L50.62-24.70Q44.98-13.62 41.65-6.37L41.65-6.37L41.65-6.37Q37.04 3.92 34.69 3.92L34.69 3.92L34.69 3.92Q33.12 3.92 33.12-0.39L33.12-0.39L33.12-0.39Q33.12-3.53 34.40-7.94L34.40-7.94L34.40-7.94Q35.67-12.35 37.04-15.19L37.04-15.19L38.32-18.03L38.32-18.03Q41.65-24.99 41.65-32.83L41.65-32.83L41.65-32.83Q41.65-43.51 36.36-50.96L36.36-50.96L36.36-50.96Q26.85-30.97 15.58-12.74L15.58-12.74L15.58-12.74Q14.50-10.98 13.13-8.92L13.13-8.92L13.13-8.92Q11.76-6.86 9.41-3.68L9.41-3.68L9.41-3.68Q7.06-0.49 4.80 1.57L4.80 1.57L4.80 1.57Q2.55 3.63 0.98 3.63L0.98 3.63L0.98 3.63Q0.10 3.63 0.10 2.55L0.10 2.55L0.20 1.67L0.20 1.67Q0.59-2.06 12.54-23.03L12.54-23.03L31.16-55.96L31.16-55.96Q27.44-58.31 22.83-58.31L22.83-58.31L22.83-58.31Q18.33-58.31 15.73-55.57L15.73-55.57L15.73-55.57Q13.13-52.82 13.13-48.22L13.13-48.22L13.13-48.22Q13.13-46.26 13.62-44.49L13.62-44.49L13.62-44.49Q13.92-43.61 13.92-43.12L13.92-43.12L13.92-43.12Q13.92-42.24 13.23-42.24L13.23-42.24L13.23-42.24Q11.56-42.24 9.41-46.45L9.41-46.45L9.41-46.45Q7.25-50.67 7.25-53.61L7.25-53.61L7.25-53.61Q7.25-57.72 10.14-60.03L10.14-60.03L10.14-60.03Q13.03-62.33 17.84-62.33L17.84-62.33L17.84-62.33Q26.07-62.33 32.44-58.11L32.44-58.11L42.14-75.26L42.14-75.26Q43.12-76.24 43.71-76.24L43.71-76.24L43.71-76.24Q44.69-76.24 44.69-74.48L44.69-74.48L44.69-74.48Q44.69-69.29 37.53-53.61L37.53-53.61L37.53-53.61Q44.88-44.88 44.88-30.58L44.88-30.58L44.88-30.58Q45.08-29.60 45.37-29.60L45.37-29.60L45.37-29.60Q45.67-29.60 45.96-30.38L45.96-30.38L45.96-30.38Q51.84-41.06 56.06-49.59L56.06-49.59L56.06-49.59Q61.74-61.05 68.55-68.26L68.55-68.26L68.55-68.26Q75.36-75.46 82.32-75.46L82.32-75.46L82.32-75.46Q83.79-75.46 83.79-74.87L83.79-74.87L83.79-74.87Q83.79-74.58 82.81-73.30ZM79.38-6.17L79.38-6.17L79.38-6.17Q71.25 1.27 68.21 1.27L68.21 1.27L68.21 1.27Q66.84 1.27 66.84-0.29L66.84-0.29L66.84-0.29Q66.84-2.25 68.55-6.27L68.55-6.27L68.55-6.27Q70.27-10.29 72.03-13.33L72.03-13.33L73.79-16.37L73.79-16.37Q74.19-17.05 74.19-17.25L74.19-17.25L74.19-17.25Q74.19-17.44 73.99-17.44L73.99-17.44L73.99-17.44Q73.60-17.44 72.52-16.37L72.52-16.37L72.52-16.37Q69.58-13.13 65.81-9.46L65.81-9.46L65.81-9.46Q62.03-5.78 59.68-3.72L59.68-3.72L57.43-1.76L57.43-1.76Q53.61 1.18 51.55 1.18L51.55 1.18L51.55 1.18Q49.39 1.18 49.39-2.16L49.39-2.16L49.39-2.16Q49.39-3.82 50.32-7.25L50.32-7.25L50.32-7.25Q51.25-10.68 51.74-11.86L51.74-11.86L51.74-11.86Q54.00-17.35 57.38-22.54L57.38-22.54L57.38-22.54Q60.76-27.73 65.37-32.49L65.37-32.49L65.37-32.49Q69.97-37.24 76.10-40.18L76.10-40.18L76.10-40.18Q82.22-43.12 88.79-43.12L88.79-43.12L88.79-43.12Q94.28-43.12 94.28-41.45L94.28-41.45L94.28-41.45Q94.28-40.47 91.83-40.47L91.83-40.47L91.83-40.47Q82.81-40.47 74.92-32.78L74.92-32.78L74.92-32.78Q67.03-25.09 62.13-15.09L62.13-15.09L62.13-15.09Q60.76-12.35 60.76-10.49L60.76-10.49L60.76-10.49Q60.76-9.41 61.45-9.41L61.45-9.41L61.45-9.41Q62.62-9.41 64.48-11.07L64.48-11.07L64.48-11.07Q65.66-12.15 67.67-13.92L67.67-13.92L67.67-13.92Q69.68-15.68 74.19-20.68L74.19-20.68L74.19-20.68Q78.69-25.68 81.34-29.99L81.34-29.99L81.34-29.99Q81.73-30.77 82.56-31.85L82.56-31.85L82.56-31.85Q83.40-32.93 85.75-34.74L85.75-34.74L85.75-34.74Q88.10-36.55 90.45-36.55L90.45-36.55L90.45-36.55Q91.73-36.55 91.73-35.87L91.73-35.87L91.73-35.87Q91.73-35.67 91.43-35.18L91.43-35.18L91.43-35.18Q91.04-34.40 89.23-31.26L89.23-31.26L89.23-31.26Q87.42-28.13 85.85-25.33L85.85-25.33L85.85-25.33Q84.28-22.54 82.52-19.26L82.52-19.26L82.52-19.26Q80.75-15.97 79.72-13.62L79.72-13.62L79.72-13.62Q78.69-11.27 78.69-10.49L78.69-10.49L78.69-10.49Q78.69-9.90 79.18-9.90L79.18-9.90L79.18-9.90Q80.65-9.90 86.34-15.58L86.34-15.58L86.34-15.58Q90.65-20.09 96.43-26.66L96.43-26.66L96.43-26.66Q96.73-26.95 96.92-26.95L96.92-26.95L96.92-26.95Q97.12-26.95 97.12-26.56L97.12-26.56L97.12-26.56Q97.12-24.70 95.65-22.93L95.65-22.93L95.65-22.93Q86.04-12.25 79.38-6.17ZM94.77-10.58L90.75-3.53L90.75-3.53Q90.26-2.65 90.26-1.76L90.26-1.76L90.26-1.76Q90.26 0 93.00 0L93.00 0L93.00 0Q95.84 0 98.98-2.60L98.98-2.60L98.98-2.60Q102.12-5.19 104.62-8.87L104.62-8.87L104.62-8.87Q107.11-12.54 109.22-16.22L109.22-16.22L109.22-16.22Q111.33-19.89 112.41-22.54L112.41-22.54L113.58-25.09L113.58-25.09Q116.13-31.46 116.13-34.40L116.13-34.40L116.13-34.40Q116.13-36.46 114.66-36.46L114.66-36.46L114.66-36.46Q113.78-36.46 112.90-35.87L112.90-35.87L112.90-35.87Q109.76-33.91 104.22-25.82L104.22-25.82L104.22-25.82Q98.69-17.74 94.77-10.58L94.77-10.58ZM111.62-48.80L111.62-48.80L111.62-48.80Q112.31-48.80 112.31-48.02L112.31-48.02L112.31-48.02Q112.31-46.65 110.69-42.73L110.69-42.73L110.69-42.73Q109.07-38.81 107.51-35.67L107.51-35.67L105.84-32.44L105.84-32.44Q105.74-32.24 105.74-32.05L105.74-32.05L105.74-32.05Q105.74-31.75 105.94-31.75L105.94-31.75L105.94-31.75Q106.13-31.75 106.53-32.14L106.53-32.14L106.53-32.14Q106.82-32.63 107.41-33.32L107.41-33.32L107.41-33.32Q108.00-34.01 109.76-35.92L109.76-35.92L109.76-35.92Q111.52-37.83 113.14-39.25L113.14-39.25L113.14-39.25Q114.76-40.67 116.87-41.85L116.87-41.85L116.87-41.85Q118.97-43.02 120.64-43.02L120.64-43.02L120.64-43.02Q124.46-43.02 124.46-36.75L124.46-36.75L124.46-36.75Q124.46-31.65 121.42-24.21L121.42-24.21L121.42-24.21Q121.42-24.01 120.30-21.46L120.30-21.46L120.30-21.46Q119.17-18.91 116.72-14.90L116.72-14.90L116.72-14.90Q114.27-10.88 111.13-7.11L111.13-7.11L111.13-7.11Q108.00-3.33 103.34-0.59L103.34-0.59L103.34-0.59Q98.69 2.16 93.79 2.16L93.79 2.16L93.79 2.16Q92.41 2.16 91.24 1.81L91.24 1.81L91.24 1.81Q90.06 1.47 89.47 1.13L89.47 1.13L89.47 1.13Q88.89 0.78 88.69 0.78L88.69 0.78L88.00 1.18L88.00 1.18Q85.36 5.10 79.58 15.68L79.58 15.68L79.58 15.68Q73.79 26.26 70.36 33.42L70.36 33.42L70.36 33.42Q69.87 34.30 69.09 35.77L69.09 35.77L69.09 35.77Q68.31 37.24 66.05 41.06L66.05 41.06L66.05 41.06Q63.80 44.88 61.79 47.77L61.79 47.77L61.79 47.77Q59.78 50.67 57.38 53.07L57.38 53.07L57.38 53.07Q54.98 55.47 53.31 55.47L53.31 55.47L53.31 55.47Q52.33 55.47 52.33 54.59L52.33 54.59L52.33 54.59Q52.33 51.94 58.06 41.01L58.06 41.01L58.06 41.01Q63.80 30.09 69.58 20.38L69.58 20.38L75.36 10.78L75.36 10.78Q89.57-14.01 97.51-28.62L97.51-28.62L97.51-28.62Q97.71-29.01 98.10-29.74L98.10-29.74L98.10-29.74Q98.49-30.48 99.67-32.59L99.67-32.59L99.67-32.59Q100.84-34.69 101.92-36.60L101.92-36.60L101.92-36.60Q103.00-38.51 104.47-40.82L104.47-40.82L104.47-40.82Q105.94-43.12 107.21-44.84L107.21-44.84L107.21-44.84Q108.49-46.55 109.66-47.68L109.66-47.68L109.66-47.68Q110.84-48.80 111.62-48.80ZM127.20-10.58L123.19-3.53L123.19-3.53Q122.70-2.65 122.70-1.76L122.70-1.76L122.70-1.76Q122.70 0 125.44 0L125.44 0L125.44 0Q128.28 0 131.42-2.60L131.42-2.60L131.42-2.60Q134.55-5.19 137.05-8.87L137.05-8.87L137.05-8.87Q139.55-12.54 141.66-16.22L141.66-16.22L141.66-16.22Q143.77-19.89 144.84-22.54L144.84-22.54L146.02-25.09L146.02-25.09Q148.57-31.46 148.57-34.40L148.57-34.40L148.57-34.40Q148.57-36.46 147.10-36.46L147.10-36.46L147.10-36.46Q146.22-36.46 145.33-35.87L145.33-35.87L145.33-35.87Q142.20-33.91 136.66-25.82L136.66-25.82L136.66-25.82Q131.12-17.74 127.20-10.58L127.20-10.58ZM144.06-48.80L144.06-48.80L144.06-48.80Q144.75-48.80 144.75-48.02L144.75-48.02L144.75-48.02Q144.75-46.65 143.13-42.73L143.13-42.73L143.13-42.73Q141.51-38.81 139.94-35.67L139.94-35.67L138.28-32.44L138.28-32.44Q138.18-32.24 138.18-32.05L138.18-32.05L138.18-32.05Q138.18-31.75 138.38-31.75L138.38-31.75L138.38-31.75Q138.57-31.75 138.96-32.14L138.96-32.14L138.96-32.14Q139.26-32.63 139.85-33.32L139.85-33.32L139.85-33.32Q140.43-34.01 142.20-35.92L142.20-35.92L142.20-35.92Q143.96-37.83 145.58-39.25L145.58-39.25L145.58-39.25Q147.20-40.67 149.30-41.85L149.30-41.85L149.30-41.85Q151.41-43.02 153.08-43.02L153.08-43.02L153.08-43.02Q156.90-43.02 156.90-36.75L156.90-36.75L156.90-36.75Q156.90-31.65 153.86-24.21L153.86-24.21L153.86-24.21Q153.86-24.01 152.73-21.46L152.73-21.46L152.73-21.46Q151.61-18.91 149.16-14.90L149.16-14.90L149.16-14.90Q146.71-10.88 143.57-7.11L143.57-7.11L143.57-7.11Q140.43-3.33 135.78-0.59L135.78-0.59L135.78-0.59Q131.12 2.16 126.22 2.16L126.22 2.16L126.22 2.16Q124.85 2.16 123.68 1.81L123.68 1.81L123.68 1.81Q122.50 1.47 121.91 1.13L121.91 1.13L121.91 1.13Q121.32 0.78 121.13 0.78L121.13 0.78L120.44 1.18L120.44 1.18Q117.80 5.10 112.01 15.68L112.01 15.68L112.01 15.68Q106.23 26.26 102.80 33.42L102.80 33.42L102.80 33.42Q102.31 34.30 101.53 35.77L101.53 35.77L101.53 35.77Q100.74 37.24 98.49 41.06L98.49 41.06L98.49 41.06Q96.24 44.88 94.23 47.77L94.23 47.77L94.23 47.77Q92.22 50.67 89.82 53.07L89.82 53.07L89.82 53.07Q87.42 55.47 85.75 55.47L85.75 55.47L85.75 55.47Q84.77 55.47 84.77 54.59L84.77 54.59L84.77 54.59Q84.77 51.94 90.50 41.01L90.50 41.01L90.50 41.01Q96.24 30.09 102.02 20.38L102.02 20.38L107.80 10.78L107.80 10.78Q122.01-14.01 129.95-28.62L129.95-28.62L129.95-28.62Q130.14-29.01 130.54-29.74L130.54-29.74L130.54-29.74Q130.93-30.48 132.10-32.59L132.10-32.59L132.10-32.59Q133.28-34.69 134.36-36.60L134.36-36.60L134.36-36.60Q135.44-38.51 136.91-40.82L136.91-40.82L136.91-40.82Q138.38-43.12 139.65-44.84L139.65-44.84L139.65-44.84Q140.92-46.55 142.10-47.68L142.10-47.68L142.10-47.68Q143.28-48.80 144.06-48.80ZM174.44-13.92L174.44-13.92L178.56-21.95L178.56-21.95Q178.56-22.25 178.36-22.25L178.36-22.25L178.36-22.25Q178.16-22.25 177.87-21.95L177.87-21.95L177.87-21.95Q174.24-17.74 170.23-13.67L170.23-13.67L170.23-13.67Q166.21-9.60 164.05-7.64L164.05-7.64L161.90-5.68L161.90-5.68Q154.55 1.27 151.51 1.27L151.51 1.27L151.51 1.27Q150.14 1.27 150.14-0.49L150.14-0.49L150.14-0.49Q150.14-2.45 151.70-6.42L151.70-6.42L151.70-6.42Q153.27-10.39 154.84-13.33L154.84-13.33L156.41-16.37L156.41-16.37Q164.64-31.75 168.56-36.95L168.56-36.95L168.56-36.95Q170.52-39.49 173.36-41.21L173.36-41.21L173.36-41.21Q176.20-42.92 177.77-42.92L177.77-42.92L177.77-42.92Q178.75-42.92 178.75-42.24L178.75-42.24L178.75-42.24Q178.75-41.85 178.36-41.16L178.36-41.16L178.36-41.16Q178.16-40.77 174.34-34.64L174.34-34.64L174.34-34.64Q170.52-28.52 168.17-24.11L168.17-24.11L168.17-24.11Q161.70-12.25 161.70-10.49L161.70-10.49L161.70-10.49Q161.70-9.80 162.29-9.80L162.29-9.80L162.29-9.80Q163.17-9.80 165.33-11.56L165.33-11.56L165.33-11.56Q171.70-17.05 179.34-26.36L179.34-26.36L179.34-26.36Q183.55-30.87 188.16-38.12L188.16-38.12L188.16-38.12Q189.43-40.08 191.93-41.50L191.93-41.50L191.93-41.50Q194.43-42.92 196.49-42.92L196.49-42.92L196.49-42.92Q197.37-42.92 197.37-42.14L197.37-42.14L196.59-40.28L196.59-40.28Q195.22-37.83 190.46-29.55L190.46-29.55L190.46-29.55Q185.71-21.27 185.12-20.19L185.12-20.19L185.12-20.19Q184.34-18.72 181.55-13.87L181.55-13.87L181.55-13.87Q178.75-9.02 177.58-6.96L177.58-6.96L177.58-6.96Q183.75-11.96 187.77-15.58L187.77-15.58L187.77-15.58Q192.08-20.09 197.86-26.66L197.86-26.66L197.86-26.66Q198.16-26.95 198.35-26.95L198.35-26.95L198.35-26.95Q198.55-26.95 198.55-26.56L198.55-26.56L198.55-26.56Q198.55-24.70 197.08-22.93L197.08-22.93L197.08-22.93Q192.77-18.23 189.63-14.90L189.63-14.90L189.63-14.90Q185.51-10.58 174.93-2.35L174.93-2.35L172.38 2.35L172.38 2.35Q153.47 37.14 146.31 47.63L146.31 47.63L146.31 47.63Q145.63 48.71 144.55 50.23L144.55 50.23L144.55 50.23Q143.47 51.74 141.02 54.34L141.02 54.34L141.02 54.34Q138.57 56.94 137.10 56.94L137.10 56.94L137.10 56.94Q134.75 56.94 134.75 50.18L134.75 50.18L134.75 50.18Q134.75 40.18 141.90 28.42L141.90 28.42L141.90 28.42Q149.65 15.78 165.82 2.45L165.82 2.45L165.82 2.45Q169.05-3.43 174.44-13.92ZM144.35 28.22L144.35 28.22L144.35 28.22Q143.57 29.40 142.49 31.31L142.49 31.31L142.49 31.31Q141.41 33.22 139.55 37.88L139.55 37.88L139.55 37.88Q137.69 42.53 137.69 45.67L137.69 45.67L137.69 45.67Q137.69 47.33 138.28 47.33L138.28 47.33L138.28 47.33Q138.77 47.33 139.75 46.40L139.75 46.40L139.75 46.40Q140.73 45.47 141.41 44.49L141.41 44.49L142.10 43.51L142.10 43.51Q151.80 28.32 163.17 7.25L163.17 7.25L163.17 7.25Q150.43 18.42 144.35 28.22ZM224.32 2.65L224.32 2.65L224.32 2.65Q218.93 2.65 216.19 0L216.19 0L216.19 0Q213.44-2.65 213.44-7.35L213.44-7.35L213.64-9.51L213.64-9.51Q213.64-10.29 213.25-10.29L213.25-10.29L212.66-9.90L212.66-9.90Q210.31-5.98 207.76-2.70L207.76-2.70L207.76-2.70Q205.21 0.59 203.84 1.96L203.84 1.96L202.47 3.23L202.47 3.23Q201.10 4.51 200.41 4.51L200.41 4.51L200.41 4.51Q199.72 4.51 199.72 3.33L199.72 3.33L199.72 3.33Q199.72 1.76 200.70-0.49L200.70-0.49L200.70-0.49Q202.17-3.72 204.77-9.16L204.77-9.16L204.77-9.16Q207.37-14.60 215.16-28.47L215.16-28.47L215.16-28.47Q222.95-42.34 230.30-52.92L230.30-52.92L230.30-52.92Q237.75-63.70 241.86-67.62L241.86-67.62L241.86-67.62Q243.33-69.09 244.12-69.09L244.12-69.09L244.12-69.09Q244.61-69.09 244.61-68.31L244.61-68.31L244.61-68.31Q244.61-68.11 244.41-66.93L244.41-66.93L244.41-66.93Q243.53-63.01 237.45-52.53L237.45-52.53L237.45-52.53Q225.30-32.73 219.81-20.38L219.81-20.38L219.81-20.38Q216.19-13.43 216.19-7.55L216.19-7.55L216.19-7.55Q216.19-4.21 217.95-2.11L217.95-2.11L217.95-2.11Q219.72 0 222.85 0L222.85 0L222.85 0Q227.36 0 231.62-3.63L231.62-3.63L231.62-3.63Q235.89-7.25 238.73-12.35L238.73-12.35L238.73-12.35Q241.57-17.44 243.33-22.74L243.33-22.74L243.33-22.74Q245.10-28.03 245.10-31.65L245.10-31.65L245.10-31.65Q245.10-40.38 237.06-42.24L237.06-42.24L237.06-42.24Q236.96-42.63 236.96-43.02L236.96-43.02L236.96-43.02Q236.96-44.20 238.34-44.39L238.34-44.39L238.34-44.39Q245.88-44.39 251.76-50.03L251.76-50.03L251.76-50.03Q257.64-55.66 257.64-63.01L257.64-63.01L257.64-63.01Q257.64-67.13 254.60-70.31L254.60-70.31L254.60-70.31Q251.57-73.50 243.33-73.50L243.33-73.50L243.33-73.50Q234.42-73.50 228.93-68.60L228.93-68.60L228.93-68.60Q223.44-63.70 223.44-57.43L223.44-57.43L223.44-57.43Q223.44-55.66 224.13-54.19L224.13-54.19L224.13-54.19Q224.52-53.41 224.52-52.92L224.52-52.92L224.52-52.92Q224.52-52.33 223.93-52.33L223.93-52.33L223.93-52.33Q223.44-52.33 223.05-52.53L223.05-52.53L223.05-52.53Q222.36-52.82 221.38-53.31L221.38-53.31L221.38-53.31Q220.40-53.80 218.78-55.76L218.78-55.76L218.78-55.76Q217.17-57.72 217.17-60.07L217.17-60.07L217.17-60.07Q217.17-66.54 225.11-71.20L225.11-71.20L225.11-71.20Q233.04-75.85 244.31-75.85L244.31-75.85L244.31-75.85Q245.49-75.85 247.01-75.75L247.01-75.75L247.01-75.75Q248.53-75.66 251.96-74.87L251.96-74.87L251.96-74.87Q255.39-74.09 257.99-72.77L257.99-72.77L257.99-72.77Q260.58-71.44 262.64-68.60L262.64-68.60L262.64-68.60Q264.70-65.76 264.70-61.94L264.70-61.94L264.70-61.94Q264.70-57.92 262.79-54.54L262.79-54.54L262.79-54.54Q260.88-51.16 257.69-48.85L257.69-48.85L257.69-48.85Q254.51-46.55 251.03-45.08L251.03-45.08L251.03-45.08Q247.55-43.61 243.82-42.83L243.82-42.83L243.82-42.83Q243.14-42.53 243.14-42.24L243.14-42.24L243.14-42.24Q243.14-42.04 243.73-41.75L243.73-41.75L243.73-41.75Q244.02-41.55 244.61-41.26L244.61-41.26L244.61-41.26Q245.20-40.96 246.62-39.69L246.62-39.69L246.62-39.69Q248.04-38.42 249.17-36.90L249.17-36.90L249.17-36.90Q250.29-35.38 251.17-32.73L251.17-32.73L251.17-32.73Q252.06-30.09 252.06-27.15L252.06-27.15L252.06-27.15Q252.06-15.88 243.68-6.62L243.68-6.62L243.68-6.62Q235.30 2.65 224.32 2.65ZM263.72-9.51L263.72-9.51L263.72-9.51Q252.25 1.27 249.02 1.27L249.02 1.27L249.02 1.27Q247.35 1.27 247.35-0.98L247.35-0.98L247.35-0.98Q247.35-3.23 249.12-7.55L249.12-7.55L249.12-7.55Q250.88-11.86 252.64-15.09L252.64-15.09L254.41-18.23L254.41-18.23Q261.86-31.26 265.68-36.95L265.68-36.95L265.68-36.95Q267.34-39.40 269.94-41.11L269.94-41.11L269.94-41.11Q272.54-42.83 274.79-42.83L274.79-42.83L274.79-42.83Q275.58-42.83 275.58-42.14L275.58-42.14L275.58-42.14Q275.58-41.65 274.89-40.28L274.89-40.28L274.89-40.28Q273.71-38.12 269.11-29.99L269.11-29.99L269.11-29.99Q264.50-21.85 263.62-20.19L263.62-20.19L263.62-20.19Q259.60-13.13 259.60-10.78L259.60-10.78L259.60-10.78Q259.60-9.90 260.19-9.90L260.19-9.90L260.19-9.90Q261.17-9.90 266.46-14.80L266.46-14.80L266.46-14.80Q270.58-18.91 277.34-26.66L277.34-26.66L277.34-26.66Q277.63-26.95 277.83-26.95L277.83-26.95L277.83-26.95Q278.03-26.95 278.03-26.56L278.03-26.56L278.03-26.56Q278.03-24.70 276.56-22.93L276.56-22.93L276.56-22.93Q269.30-14.90 263.72-9.51ZM276.75-48.41L276.75-48.41L276.75-48.41Q274.30-48.41 274.30-51.35L274.30-51.35L274.30-51.35Q274.30-54.10 276.36-56.89L276.36-56.89L276.36-56.89Q278.42-59.68 280.87-59.68L280.87-59.68L280.87-59.68Q283.81-59.68 283.81-56.35L283.81-56.35L283.81-56.35Q283.81-53.61 281.55-51.01L281.55-51.01L281.55-51.01Q279.30-48.41 276.75-48.41ZM292.63-20.29L292.63-20.29L292.63-20.29Q291.84-20.29 291.84-20.87L291.84-20.87L291.84-20.87Q291.84-21.17 292.14-21.66L292.14-21.66L292.14-21.66Q297.92-30.67 297.92-34.01L297.92-34.01L297.92-34.01Q297.92-34.89 297.23-34.89L297.23-34.89L297.23-34.89Q294.29-34.89 283.42-21.56L283.42-21.56L283.42-21.56Q280.18-17.44 277.39-13.03L277.39-13.03L277.39-13.03Q274.60-8.62 273.52-6.27L273.52-6.27L272.34-4.02L272.34-4.02Q271.17-1.67 268.72 0.34L268.72 0.34L268.72 0.34Q266.27 2.35 263.62 2.35L263.62 2.35L263.62 2.35Q262.25 2.35 262.25 1.67L262.25 1.67L262.25 1.67Q262.25 1.08 263.08-0.78L263.08-0.78L263.08-0.78Q263.91-2.65 265.09-4.90L265.09-4.90L265.09-4.90Q266.27-7.15 267.44-9.31L267.44-9.31L267.44-9.31Q268.62-11.47 269.40-12.94L269.40-12.94L270.28-14.41L280.57-32.34L280.57-32.34Q286.55-43.61 293.12-43.61L293.12-43.61L293.12-43.61Q294.00-43.61 294.00-42.92L294.00-42.92L294.00-42.92Q294.00-42.04 289.74-35.62L289.74-35.62L289.74-35.62Q285.47-29.20 284.79-27.44L284.79-27.44L284.79-27.44Q284.59-26.85 284.59-26.75L284.59-26.75L284.59-26.75Q284.59-26.56 284.79-26.56L284.79-26.56L284.79-26.56Q284.98-26.56 285.47-27.05L285.47-27.05L285.47-27.05Q292.82-35.38 301.06-41.85L301.06-41.85L301.06-41.85Q301.55-42.34 303.21-43.27L303.21-43.27L303.21-43.27Q304.88-44.20 306.15-44.20L306.15-44.20L306.15-44.20Q308.01-44.20 308.01-40.96L308.01-40.96L308.01-40.96Q308.01-37.44 305.66-32.54L305.66-32.54L305.66-32.54Q303.31-27.64 299.29-23.91L299.29-23.91L298.90-23.52L298.90-23.52Q298.51-23.23 298.07-22.88L298.07-22.88L298.07-22.88Q297.63-22.54 296.94-22.05L296.94-22.05L296.94-22.05Q296.25-21.56 295.57-21.22L295.57-21.22L295.57-21.22Q294.88-20.87 294.10-20.58L294.10-20.58L294.10-20.58Q293.31-20.29 292.63-20.29ZM313.70-14.80L313.70-14.80L313.70-14.80Q317.81-18.91 324.58-26.66L324.58-26.66L324.58-26.66Q324.87-26.95 325.07-26.95L325.07-26.95L325.07-26.95Q325.26-26.95 325.26-26.56L325.26-26.56L325.26-26.56Q325.26-24.70 323.79-22.93L323.79-22.93L323.79-22.93Q316.54-14.90 310.95-9.51L310.95-9.51L310.95-9.51Q299.19 1.86 295.37 1.86L295.37 1.86L295.37 1.86Q294 1.86 294 0.10L294 0.10L294 0.10Q294-1.96 295.57-6.08L295.57-6.08L295.57-6.08Q297.14-10.19 298.70-13.33L298.70-13.33L300.27-16.37L300.27-16.37Q302.53-20.38 307.72-30.09L307.72-30.09L307.72-30.09Q312.91-39.79 317.76-48.41L317.76-48.41L317.76-48.41Q322.62-57.04 326.93-63.99L326.93-63.99L319.19-63.99L319.19-63.99Q318.21-63.99 318.21-64.48L318.21-64.48L318.21-64.48Q318.21-64.97 318.99-65.46L318.99-65.46L318.99-65.46Q319.77-65.95 320.66-65.95L320.66-65.95L320.66-65.95Q322.81-65.95 328.20-66.05L328.20-66.05L328.20-66.05Q333.00-73.60 336.43-78.01L336.43-78.01L336.43-78.01Q339.47-81.83 340.65-81.83L340.65-81.83L340.65-81.83Q341.33-81.83 341.33-80.95L341.33-80.95L341.33-80.95Q341.33-78.89 337.61-72.13L337.61-72.13L334.28-66.05L344.37-66.05L344.37-66.05Q345.25-66.05 345.25-65.56L345.25-65.56L345.25-65.56Q345.25-63.99 342.41-63.99L342.41-63.99L333.20-63.99L333.20-63.99Q310.56-21.07 309.39-19.01L309.39-19.01L309.39-19.01Q305.27-11.47 305.27-9.21L305.27-9.21L305.27-9.21Q305.27-8.53 305.76-8.53L305.76-8.53L305.76-8.53Q307.13-8.53 313.70-14.80ZM350.55-14.80L350.55-14.80L350.55-14.80Q354.66-18.91 361.42-26.66L361.42-26.66L361.42-26.66Q361.72-26.95 361.91-26.95L361.91-26.95L361.91-26.95Q362.11-26.95 362.11-26.56L362.11-26.56L362.11-26.56Q362.11-24.70 360.64-22.93L360.64-22.93L360.64-22.93Q353.39-14.90 347.80-9.51L347.80-9.51L347.80-9.51Q336.04 1.37 332.32 1.37L332.32 1.37L332.32 1.37Q330.85 1.37 330.85-0.49L330.85-0.49L330.85-0.49Q330.85-4.02 334.87-11.22L334.87-11.22L334.87-11.22Q338.88-18.42 342.85-24.65L342.85-24.65L342.85-24.65Q346.82-30.87 346.82-31.95L346.82-31.95L346.82-31.95Q346.82-32.54 346.23-32.54L346.23-32.54L346.23-32.54Q343.88-32.54 337.32-25.28L337.32-25.28L337.32-25.28Q330.75-18.03 326.24-12.25L326.24-12.25L326.24-12.25Q321.24-5.98 317.57-2.25L317.57-2.25L317.57-2.25Q313.89 1.47 312.72 1.96L312.72 1.96L311.44 2.55L311.44 2.55Q310.56 2.55 310.56 1.57L310.56 1.57L310.56 1.57Q310.56 0 312.33-4.02L312.33-4.02L312.33-4.02Q314.09-8.04 315.85-11.27L315.85-11.27L317.62-14.50L332.91-41.94L332.91-41.94Q350.94-73.79 361.33-87.22L361.33-87.22L361.33-87.22Q364.27-91.14 365.44-91.14L365.44-91.14L365.44-91.14Q366.03-91.14 366.03-90.36L366.03-90.36L366.03-90.36Q366.03-88.30 362.89-81.93L362.89-81.93L362.89-81.93Q347.51-54.19 341.53-43.51L341.53-43.51L341.53-43.51Q337.90-37.04 334.96-32.00L334.96-32.00L334.96-32.00Q332.02-26.95 330.80-24.89L330.80-24.89L330.80-24.89Q329.57-22.83 328.69-21.32L328.69-21.32L328.69-21.32Q327.81-19.80 327.32-18.72L327.32-18.72L327.32-18.72Q327.22-18.42 327.22-18.13L327.22-18.13L327.22-18.13Q327.22-17.64 327.42-17.64L327.42-17.64L327.42-17.64Q327.61-17.64 328.20-18.23L328.20-18.23L328.20-18.23Q350.15-42.63 357.01-42.63L357.01-42.63L357.01-42.63Q358.39-42.63 358.39-41.26L358.39-41.26L358.39-41.26Q358.39-40.87 357.99-39.54L357.99-39.54L357.99-39.54Q357.60-38.22 355.74-34.20L355.74-34.20L355.74-34.20Q353.88-30.18 350.84-25.28L350.84-25.28L350.84-25.28Q348.98-22.54 346.14-17.44L346.14-17.44L346.14-17.44Q343.29-12.35 343.29-10.78L343.29-10.78L343.29-10.78Q343.29-9.90 344.18-9.90L344.18-9.90L344.18-9.90Q344.47-9.90 345.01-10.14L345.01-10.14L345.01-10.14Q345.55-10.39 346.23-10.98L346.23-10.98L346.23-10.98Q346.92-11.56 347.46-12.05L347.46-12.05L347.46-12.05Q348.00-12.54 349.03-13.47L349.03-13.47L349.03-13.47Q350.06-14.41 350.55-14.80ZM365.25-10.49L365.25-10.49L365.25-10.49Q365.83-10.98 366.86-11.91L366.86-11.91L366.86-11.91Q367.89-12.84 370.83-15.83L370.83-15.83L370.83-15.83Q373.77-18.82 376.47-22.00L376.47-22.00L376.47-22.00Q379.16-25.19 382.45-29.89L382.45-29.89L382.45-29.89Q385.73-34.59 388.08-39.20L388.08-39.20L388.08-39.20Q388.18-39.40 388.18-39.59L388.18-39.59L388.08-39.89L388.08-39.89Q387.39-40.28 386.51-40.28L386.51-40.28L386.51-40.28Q382.30-40.28 376.08-34.01L376.08-34.01L376.08-34.01Q369.85-27.73 365.49-20.53L365.49-20.53L365.49-20.53Q361.13-13.33 361.13-10.19L361.13-10.19L361.13-10.19Q361.13-8.82 362.21-8.82L362.21-8.82L362.21-8.82Q363.38-8.82 365.25-10.49ZM386.90-14.80L386.90-14.80L386.90-14.80Q391.02-18.91 397.78-26.66L397.78-26.66L397.78-26.66Q398.08-26.95 398.27-26.95L398.27-26.95L398.27-26.95Q398.47-26.95 398.47-26.56L398.47-26.56L398.47-26.56Q398.47-24.70 397.00-22.93L397.00-22.93L397.00-22.93Q389.75-14.90 384.16-9.51L384.16-9.51L384.16-9.51Q372.60 1.27 368.97 1.27L368.97 1.27L368.97 1.27Q367.60 1.27 367.60-0.20L367.60-0.20L367.60-0.20Q367.60-2.06 369.46-6.08L369.46-6.08L369.46-6.08Q371.32-10.09 373.28-13.23L373.28-13.23L375.14-16.37L375.14-16.37Q375.54-16.86 375.54-17.25L375.54-17.25L375.54-17.25Q375.54-17.44 375.34-17.44L375.34-17.44L375.34-17.44Q374.95-17.44 374.26-16.76L374.26-16.76L374.26-16.76Q371.22-13.23 367.30-9.51L367.30-9.51L367.30-9.51Q363.38-5.78 360.93-3.72L360.93-3.72L358.58-1.76L358.58-1.76Q354.66 1.27 352.70 1.27L352.70 1.27L352.31 1.18L352.31 1.18Q350.64 1.08 350.64-1.76L350.64-1.76L350.64-1.76Q350.64-9.21 355.89-18.77L355.89-18.77L355.89-18.77Q361.13-28.32 369.46-35.38L369.46-35.38L369.46-35.38Q377.79-42.43 385.53-42.43L385.53-42.43L385.53-42.43Q386.32-42.43 387.00-42.29L387.00-42.29L387.00-42.29Q387.69-42.14 388.03-42.04L388.03-42.04L388.03-42.04Q388.37-41.94 388.67-41.75L388.67-41.75L388.96-41.65L388.96-41.65Q389.16-41.65 389.45-41.94L389.45-41.94L389.45-41.94Q407.58-74.68 417.28-87.12L417.28-87.12L417.28-87.12Q420.22-91.04 421.50-91.04L421.50-91.04L421.50-91.04Q421.99-91.04 421.99-90.26L421.99-90.26L421.99-90.26Q421.99-88.20 418.85-81.83L418.85-81.83L418.85-81.83Q403.76-54.19 397.68-43.51L397.68-43.51L397.68-43.51Q386.81-24.11 384.45-20.19L384.45-20.19L384.45-20.19Q379.65-11.96 379.65-10.19L379.65-10.19L379.65-10.19Q379.65-9.51 380.24-9.51L380.24-9.51L380.24-9.51Q380.73-9.51 381.37-9.85L381.37-9.85L381.37-9.85Q382.00-10.19 382.79-10.88L382.79-10.88L382.79-10.88Q383.57-11.56 384.21-12.15L384.21-12.15L384.21-12.15Q384.85-12.74 385.73-13.62L385.73-13.62L385.73-13.62Q386.61-14.50 386.90-14.80ZM416.99-6.17L416.99-6.17L416.99-6.17Q408.86 1.27 405.82 1.27L405.82 1.27L405.82 1.27Q404.45 1.27 404.45-0.29L404.45-0.29L404.45-0.29Q404.45-2.25 406.16-6.27L406.16-6.27L406.16-6.27Q407.88-10.29 409.64-13.33L409.64-13.33L411.40-16.37L411.40-16.37Q411.80-17.05 411.80-17.25L411.80-17.25L411.80-17.25Q411.80-17.44 411.60-17.44L411.60-17.44L411.60-17.44Q411.21-17.44 410.13-16.37L410.13-16.37L410.13-16.37Q407.19-13.13 403.42-9.46L403.42-9.46L403.42-9.46Q399.64-5.78 397.29-3.72L397.29-3.72L395.04-1.76L395.04-1.76Q391.22 1.18 389.16 1.18L389.16 1.18L389.16 1.18Q387.00 1.18 387.00-2.16L387.00-2.16L387.00-2.16Q387.00-3.82 387.93-7.25L387.93-7.25L387.93-7.25Q388.86-10.68 389.35-11.86L389.35-11.86L389.35-11.86Q391.61-17.35 394.99-22.54L394.99-22.54L394.99-22.54Q398.37-27.73 402.98-32.49L402.98-32.49L402.98-32.49Q407.58-37.24 413.71-40.18L413.71-40.18L413.71-40.18Q419.83-43.12 426.40-43.12L426.40-43.12L426.40-43.12Q431.89-43.12 431.89-41.45L431.89-41.45L431.89-41.45Q431.89-40.47 429.44-40.47L429.44-40.47L429.44-40.47Q420.42-40.47 412.53-32.78L412.53-32.78L412.53-32.78Q404.64-25.09 399.74-15.09L399.74-15.09L399.74-15.09Q398.37-12.35 398.37-10.49L398.37-10.49L398.37-10.49Q398.37-9.41 399.06-9.41L399.06-9.41L399.06-9.41Q400.23-9.41 402.09-11.07L402.09-11.07L402.09-11.07Q403.27-12.15 405.28-13.92L405.28-13.92L405.28-13.92Q407.29-15.68 411.80-20.68L411.80-20.68L411.80-20.68Q416.30-25.68 418.95-29.99L418.95-29.99L418.95-29.99Q419.34-30.77 420.18-31.85L420.18-31.85L420.18-31.85Q421.01-32.93 423.36-34.74L423.36-34.74L423.36-34.74Q425.71-36.55 428.06-36.55L428.06-36.55L428.06-36.55Q429.34-36.55 429.34-35.87L429.34-35.87L429.34-35.87Q429.34-35.67 429.04-35.18L429.04-35.18L429.04-35.18Q428.65-34.40 426.84-31.26L426.84-31.26L426.84-31.26Q425.03-28.13 423.46-25.33L423.46-25.33L423.46-25.33Q421.89-22.54 420.13-19.26L420.13-19.26L420.13-19.26Q418.36-15.97 417.33-13.62L417.33-13.62L417.33-13.62Q416.30-11.27 416.30-10.49L416.30-10.49L416.30-10.49Q416.30-9.90 416.79-9.90L416.79-9.90L416.79-9.90Q418.26-9.90 423.95-15.58L423.95-15.58L423.95-15.58Q428.26-20.09 434.04-26.66L434.04-26.66L434.04-26.66Q434.34-26.95 434.53-26.95L434.53-26.95L434.53-26.95Q434.73-26.95 434.73-26.56L434.73-26.56L434.73-26.56Q434.73-24.70 433.26-22.93L433.26-22.93L433.26-22.93Q423.65-12.25 416.99-6.17ZM445.80-13.92L445.80-13.92L449.92-21.95L449.92-21.95Q449.92-22.25 449.72-22.25L449.72-22.25L449.72-22.25Q449.53-22.25 449.23-21.95L449.23-21.95L449.23-21.95Q445.61-17.74 441.59-13.67L441.59-13.67L441.59-13.67Q437.57-9.60 435.41-7.64L435.41-7.64L433.26-5.68L433.26-5.68Q425.91 1.27 422.87 1.27L422.87 1.27L422.87 1.27Q421.50 1.27 421.50-0.49L421.50-0.49L421.50-0.49Q421.50-2.45 423.07-6.42L423.07-6.42L423.07-6.42Q424.63-10.39 426.20-13.33L426.20-13.33L427.77-16.37L427.77-16.37Q436.00-31.75 439.92-36.95L439.92-36.95L439.92-36.95Q441.88-39.49 444.72-41.21L444.72-41.21L444.72-41.21Q447.57-42.92 449.13-42.92L449.13-42.92L449.13-42.92Q450.11-42.92 450.11-42.24L450.11-42.24L450.11-42.24Q450.11-41.85 449.72-41.16L449.72-41.16L449.72-41.16Q449.53-40.77 445.70-34.64L445.70-34.64L445.70-34.64Q441.88-28.52 439.53-24.11L439.53-24.11L439.53-24.11Q433.06-12.25 433.06-10.49L433.06-10.49L433.06-10.49Q433.06-9.80 433.65-9.80L433.65-9.80L433.65-9.80Q434.53-9.80 436.69-11.56L436.69-11.56L436.69-11.56Q443.06-17.05 450.70-26.36L450.70-26.36L450.70-26.36Q454.92-30.87 459.52-38.12L459.52-38.12L459.52-38.12Q460.80-40.08 463.30-41.50L463.30-41.50L463.30-41.50Q465.79-42.92 467.85-42.92L467.85-42.92L467.85-42.92Q468.73-42.92 468.73-42.14L468.73-42.14L467.95-40.28L467.95-40.28Q466.58-37.83 461.83-29.55L461.83-29.55L461.83-29.55Q457.07-21.27 456.48-20.19L456.48-20.19L456.48-20.19Q455.70-18.72 452.91-13.87L452.91-13.87L452.91-13.87Q450.11-9.02 448.94-6.96L448.94-6.96L448.94-6.96Q455.11-11.96 459.13-15.58L459.13-15.58L459.13-15.58Q463.44-20.09 469.22-26.66L469.22-26.66L469.22-26.66Q469.52-26.95 469.71-26.95L469.71-26.95L469.71-26.95Q469.91-26.95 469.91-26.56L469.91-26.56L469.91-26.56Q469.91-24.70 468.44-22.93L468.44-22.93L468.44-22.93Q464.13-18.23 460.99-14.90L460.99-14.90L460.99-14.90Q456.88-10.58 446.29-2.35L446.29-2.35L443.74 2.35L443.74 2.35Q424.83 37.14 417.68 47.63L417.68 47.63L417.68 47.63Q416.99 48.71 415.91 50.23L415.91 50.23L415.91 50.23Q414.83 51.74 412.38 54.34L412.38 54.34L412.38 54.34Q409.93 56.94 408.46 56.94L408.46 56.94L408.46 56.94Q406.11 56.94 406.11 50.18L406.11 50.18L406.11 50.18Q406.11 40.18 413.27 28.42L413.27 28.42L413.27 28.42Q421.01 15.78 437.18 2.45L437.18 2.45L437.18 2.45Q440.41-3.43 445.80-13.92ZM415.72 28.22L415.72 28.22L415.72 28.22Q414.93 29.40 413.85 31.31L413.85 31.31L413.85 31.31Q412.78 33.22 410.91 37.88L410.91 37.88L410.91 37.88Q409.05 42.53 409.05 45.67L409.05 45.67L409.05 45.67Q409.05 47.33 409.64 47.33L409.64 47.33L409.64 47.33Q410.13 47.33 411.11 46.40L411.11 46.40L411.11 46.40Q412.09 45.47 412.78 44.49L412.78 44.49L413.46 43.51L413.46 43.51Q423.16 28.32 434.53 7.25L434.53 7.25L434.53 7.25Q421.79 18.42 415.72 28.22ZM562.23-72.72L562.23-72.72L562.23-72.72Q557.13-65.37 550.86-54.10L550.86-54.10L550.86-54.10Q544.59-42.83 540.86-35.18L540.86-35.18L537.14-27.54L537.14-27.54Q527.04-6.57 527.04 2.55L527.04 2.55L527.04 2.55Q527.04 2.74 527.09 3.33L527.09 3.33L527.09 3.33Q527.14 3.92 527.14 4.31L527.14 4.31L527.14 4.31Q527.14 5.88 526.26 5.88L526.26 5.88L526.26 5.88Q524.59 5.88 522.63 2.99L522.63 2.99L522.63 2.99Q520.67 0.10 520.67-4.70L520.67-4.70L520.67-4.70Q520.67-9.11 522.78-15.48L522.78-15.48L522.78-15.48Q524.89-21.85 529.00-30.04L529.00-30.04L529.00-30.04Q533.12-38.22 535.91-43.22L535.91-43.22L535.91-43.22Q538.71-48.22 543.31-56.25L543.31-56.25L543.31-56.25Q543.61-56.84 543.61-57.13L543.61-57.13L543.61-57.13Q543.41-57.62 543.12-57.62L543.12-57.62L543.12-57.62Q542.53-57.62 541.94-57.13L541.94-57.13L541.94-57.13Q536.16-52.43 526.75-41.16L526.75-41.16L526.75-41.16Q517.34-29.89 510.87-20.97L510.87-20.97L504.31-12.05L504.31-12.05Q502.74-9.70 501.76-9.70L501.76-9.70L501.76-9.70Q501.47-9.70 501.27-9.90L501.27-9.90L501.27-9.90Q501.07-10.09 500.98-10.44L500.98-10.44L500.98-10.44Q500.88-10.78 500.83-11.07L500.83-11.07L500.83-11.07Q500.78-11.37 500.78-11.56L500.78-11.56L500.78-11.76L500.78-11.76Q501.47-17.84 502.79-28.71L502.79-28.71L502.79-28.71Q504.11-39.59 504.99-47.04L504.99-47.04L504.99-47.04Q505.88-54.49 505.88-54.68L505.88-54.68L505.88-54.68Q505.88-55.66 505.48-55.66L505.48-55.66L505.48-55.66Q505.29-55.66 504.95-55.37L504.95-55.37L504.95-55.37Q504.60-55.08 504.41-54.78L504.41-54.78L504.21-54.49L504.21-54.49Q500.00-48.22 495.19-38.27L495.19-38.27L495.19-38.27Q490.39-28.32 487.45-20.68L487.45-20.68L487.45-20.68Q485.30-15.19 483.04-10.63L483.04-10.63L483.04-10.63Q480.79-6.08 479.07-3.58L479.07-3.58L479.07-3.58Q477.36-1.08 475.94 0.64L475.94 0.64L475.94 0.64Q474.52 2.35 473.73 2.94L473.73 2.94L472.95 3.53L472.95 3.53Q471.87 4.41 471.28 4.41L471.28 4.41L471.28 4.41Q470.69 4.41 470.69 3.43L470.69 3.43L470.79 2.55L470.79 2.55Q471.77-2.65 479.37-17.25L479.37-17.25L479.37-17.25Q486.96-31.85 494.12-43.90L494.12-43.90L501.27-55.86L506.66-65.17L506.66-65.17Q510.68-76.64 512.83-76.64L512.83-76.64L512.83-76.64Q514.30-76.64 514.30-71.64L514.30-71.64L514.30-71.64Q511.27-35.18 511.27-29.99L511.27-29.99L511.27-29.99Q511.27-28.52 511.85-28.52L511.85-28.52L511.85-28.52Q512.44-28.52 513.23-29.60L513.23-29.60L513.23-29.60Q514.50-31.26 516.75-34.10L516.75-34.10L516.75-34.10Q519.01-36.95 525.38-44.30L525.38-44.30L525.38-44.30Q531.75-51.65 537.38-57.53L537.38-57.53L537.38-57.53Q543.02-63.41 549.68-68.80L549.68-68.80L549.68-68.80Q556.35-74.19 560.66-75.36L560.66-75.36L560.66-75.36Q561.64-75.56 561.93-75.56L561.93-75.56L561.93-75.56Q563.11-75.56 563.11-74.68L563.11-74.68L563.11-74.68Q563.11-73.89 562.23-72.72ZM563.21-33.22L563.21-33.22L563.21-33.22Q564.38-35.67 564.38-37.53L564.38-37.53L564.38-37.53Q564.38-39.10 563.40-39.10L563.40-39.10L563.40-39.10Q562.81-39.10 562.08-38.76L562.08-38.76L562.08-38.76Q561.34-38.42 560.95-38.02L560.95-38.02L560.46-37.63L560.46-37.63Q557.42-34.99 552.87-27.98L552.87-27.98L552.87-27.98Q548.31-20.97 548.31-19.01L548.31-19.01L548.31-19.01Q548.31-18.62 548.51-18.62L548.51-18.62L548.51-18.62Q549.09-18.62 551.10-19.60L551.10-19.60L551.10-19.60Q553.11-20.58 556.89-24.21L556.89-24.21L556.89-24.21Q560.66-27.83 563.21-33.22ZM558.80-10.78L558.80-10.78L558.80-10.78Q563.99-15.58 573.69-26.66L573.69-26.66L573.69-26.66Q573.99-26.95 574.18-26.95L574.18-26.95L574.18-26.95Q574.38-26.95 574.38-26.56L574.38-26.56L574.38-26.56Q574.38-24.70 572.91-22.93L572.91-22.93L572.91-22.93Q565.66-14.90 560.07-9.51L560.07-9.51L560.07-9.51Q555.95-5.39 550.27-1.62L550.27-1.62L550.27-1.62Q544.59 2.16 540.86 2.16L540.86 2.16L540.86 2.16Q536.35 2.16 536.35-4.12L536.35-4.12L536.35-4.12Q536.35-14.50 544.05-25.87L544.05-25.87L544.05-25.87Q551.74-37.24 561.83-41.26L561.83-41.26L561.83-41.26Q566.05-43.02 569.48-43.02L569.48-43.02L569.48-43.02Q573.30-43.02 573.30-39.98L573.30-39.98L573.30-39.98Q573.30-34.30 565.26-26.95L565.26-26.95L565.26-26.95Q557.23-19.60 547.23-15.78L547.23-15.78L547.23-15.78Q546.84-15.68 546.55-15.09L546.55-15.09L546.55-15.09Q545.08-11.07 545.08-7.94L545.08-7.94L545.08-7.94Q545.08-4.41 547.72-4.41L547.72-4.41L547.72-4.41Q551.94-4.41 558.80-10.78ZM592.90-47.73L592.90-47.73L592.90-47.73Q599.86-52.63 605.40-58.85L605.40-58.85L605.40-58.85Q610.93-65.07 613.82-70.31L613.82-70.31L613.82-70.31Q616.71-75.56 618.18-79.38L618.18-79.38L618.18-79.38Q619.65-83.20 619.65-84.87L619.65-84.87L619.65-84.87Q619.65-85.85 618.97-85.85L618.97-85.85L618.97-85.85Q617.60-85.85 615.64-83.89L615.64-83.89L615.64-83.89Q611.91-80.16 607.21-73.11L607.21-73.11L607.21-73.11Q602.50-66.05 599.61-61.01L599.61-61.01L599.61-61.01Q596.72-55.96 592.12-47.53L592.12-47.53L592.12-47.53Q592.51-47.53 592.90-47.73ZM582.41-14.80L582.41-14.80L582.41-14.80Q586.53-18.91 593.29-26.66L593.29-26.66L593.29-26.66Q593.59-26.95 593.78-26.95L593.78-26.95L593.78-26.95Q593.98-26.95 593.98-26.56L593.98-26.56L593.98-26.56Q593.98-24.70 592.51-22.93L592.51-22.93L592.51-22.93Q585.26-14.90 579.67-9.51L579.67-9.51L579.67-9.51Q567.42 2.06 564.09 2.06L564.09 2.06L564.09 2.06Q562.62 2.06 562.62 0L562.62 0L562.62 0Q562.62-1.08 562.86-2.35L562.86-2.35L562.86-2.35Q563.11-3.63 563.70-5.15L563.70-5.15L563.70-5.15Q564.28-6.66 564.73-7.69L564.73-7.69L564.73-7.69Q565.17-8.72 566.00-10.63L566.00-10.63L566.00-10.63Q566.83-12.54 567.13-13.23L567.13-13.23L567.13-13.23Q569.87-19.40 583.98-45.77L583.98-45.77L583.98-45.77Q603.29-80.95 619.46-88.98L619.46-88.98L619.46-88.98Q621.81-90.16 624.16-90.16L624.16-90.16L624.16-90.16Q626.91-90.16 626.91-87.61L626.91-87.61L626.91-87.61Q626.91-81.73 622.89-74.73L622.89-74.73L622.89-74.73Q618.87-67.72 613.09-61.84L613.09-61.84L613.09-61.84Q607.31-55.96 601.77-51.55L601.77-51.55L601.77-51.55Q596.23-47.14 592.21-44.88L592.21-44.88L592.21-44.88Q591.63-44.69 591.14-44.00L591.14-44.00L591.14-44.00Q586.82-37.04 582.71-29.06L582.71-29.06L582.71-29.06Q578.59-21.07 576.53-16.46L576.53-16.46L574.57-11.96L574.57-11.96Q574.08-10.49 574.08-10.00L574.08-10.00L574.08-10.00Q574.08-9.11 574.77-9.11L574.77-9.11L574.77-9.11Q576.73-9.11 582.41-14.80ZM626.81-34.50L626.81-34.50L626.81-34.50Q627.69-34.30 627.69-33.91L627.69-33.91L627.69-33.91Q627.69-33.32 626.91-32.54L626.91-32.54L626.91-32.54Q625.83-31.46 623.72-29.69L623.72-29.69L623.72-29.69Q621.61-27.93 621.22-27.54L621.22-27.54L619.85-25.68L619.85-25.68Q617.79-19.89 613.53-13.67L613.53-13.67L613.53-13.67Q609.27-7.45 603.14-2.74L603.14-2.74L603.14-2.74Q597.02 1.96 591.43 1.96L591.43 1.96L591.43 1.96Q584.47 1.96 584.47-6.57L584.47-6.57L584.47-6.57Q584.47-14.11 589.37-22.88L589.37-22.88L589.37-22.88Q594.27-31.65 602.06-37.88L602.06-37.88L602.06-37.88Q609.85-44.10 617.40-44.10L617.40-44.10L617.40-44.10Q622.89-44.10 622.89-39.79L622.89-39.79L622.89-39.79Q622.89-37.44 620.54-33.42L620.54-33.42L620.54-33.42Q620.44-33.32 620.44-33.12L620.44-33.12L620.44-33.12Q620.44-32.93 620.63-32.93L620.63-32.93L620.63-32.93Q624.26-34.40 626.81-34.50ZM617.50-32.14L617.50-32.14L617.50-32.14Q618.28-35.57 618.28-37.44L618.28-37.44L618.28-37.44Q618.28-41.55 615.54-41.55L615.54-41.55L615.54-41.55Q611.72-41.55 606.03-34.50L606.03-34.50L606.03-34.50Q600.35-27.44 596.28-18.62L596.28-18.62L596.28-18.62Q592.21-9.80 592.21-4.70L592.21-4.70L592.21-4.70Q592.21-0.98 594.86-0.98L594.86-0.98L594.86-0.98Q598.98-0.98 604.71-9.21L604.71-9.21L604.71-9.21Q610.44-17.44 611.62-25.77L611.62-25.77L611.62-25.77Q611.52-25.97 611.52-26.36L611.52-26.36L611.52-26.36Q611.52-29.20 616.62-31.46L616.62-31.46L616.62-31.46Q617.40-31.75 617.50-32.14ZM631.22-10.49L631.22-10.49L631.22-10.49Q631.81-10.98 632.84-11.91L632.84-11.91L632.84-11.91Q633.86-12.84 636.80-15.83L636.80-15.83L636.80-15.83Q639.74-18.82 642.44-22.00L642.44-22.00L642.44-22.00Q645.13-25.19 648.42-29.89L648.42-29.89L648.42-29.89Q651.70-34.59 654.05-39.20L654.05-39.20L654.05-39.20Q654.15-39.40 654.15-39.59L654.15-39.59L654.05-39.89L654.05-39.89Q653.37-40.28 652.48-40.28L652.48-40.28L652.48-40.28Q648.27-40.28 642.05-34.01L642.05-34.01L642.05-34.01Q635.82-27.73 631.46-20.53L631.46-20.53L631.46-20.53Q627.10-13.33 627.10-10.19L627.10-10.19L627.10-10.19Q627.10-8.82 628.18-8.82L628.18-8.82L628.18-8.82Q629.36-8.82 631.22-10.49ZM652.88-14.80L652.88-14.80L652.88-14.80Q656.99-18.91 663.75-26.66L663.75-26.66L663.75-26.66Q664.05-26.95 664.24-26.95L664.24-26.95L664.24-26.95Q664.44-26.95 664.44-26.56L664.44-26.56L664.44-26.56Q664.44-24.70 662.97-22.93L662.97-22.93L662.97-22.93Q655.72-14.90 650.13-9.51L650.13-9.51L650.13-9.51Q638.57 1.27 634.94 1.27L634.94 1.27L634.94 1.27Q633.57 1.27 633.57-0.20L633.57-0.20L633.57-0.20Q633.57-2.06 635.43-6.08L635.43-6.08L635.43-6.08Q637.29-10.09 639.25-13.23L639.25-13.23L641.12-16.37L641.12-16.37Q641.51-16.86 641.51-17.25L641.51-17.25L641.51-17.25Q641.51-17.44 641.31-17.44L641.31-17.44L641.31-17.44Q640.92-17.44 640.23-16.76L640.23-16.76L640.23-16.76Q637.20-13.23 633.28-9.51L633.28-9.51L633.28-9.51Q629.36-5.78 626.91-3.72L626.91-3.72L624.55-1.76L624.55-1.76Q620.63 1.27 618.67 1.27L618.67 1.27L618.28 1.18L618.28 1.18Q616.62 1.08 616.62-1.76L616.62-1.76L616.62-1.76Q616.62-9.21 621.86-18.77L621.86-18.77L621.86-18.77Q627.10-28.32 635.43-35.38L635.43-35.38L635.43-35.38Q643.76-42.43 651.50-42.43L651.50-42.43L651.50-42.43Q652.29-42.43 652.97-42.29L652.97-42.29L652.97-42.29Q653.66-42.14 654.00-42.04L654.00-42.04L654.00-42.04Q654.35-41.94 654.64-41.75L654.64-41.75L654.93-41.65L654.93-41.65Q655.13-41.65 655.42-41.94L655.42-41.94L655.42-41.94Q673.55-74.68 683.26-87.12L683.26-87.12L683.26-87.12Q686.20-91.04 687.47-91.04L687.47-91.04L687.47-91.04Q687.96-91.04 687.96-90.26L687.96-90.26L687.96-90.26Q687.96-88.20 684.82-81.83L684.82-81.83L684.82-81.83Q669.73-54.19 663.66-43.51L663.66-43.51L663.66-43.51Q652.78-24.11 650.43-20.19L650.43-20.19L650.43-20.19Q645.62-11.96 645.62-10.19L645.62-10.19L645.62-10.19Q645.62-9.51 646.21-9.51L646.21-9.51L646.21-9.51Q646.70-9.51 647.34-9.85L647.34-9.85L647.34-9.85Q647.98-10.19 648.76-10.88L648.76-10.88L648.76-10.88Q649.54-11.56 650.18-12.15L650.18-12.15L650.18-12.15Q650.82-12.74 651.70-13.62L651.70-13.62L651.70-13.62Q652.58-14.50 652.88-14.80ZM675.51-13.92L675.51-13.92L679.63-21.95L679.63-21.95Q679.63-22.25 679.43-22.25L679.43-22.25L679.43-22.25Q679.24-22.25 678.94-21.95L678.94-21.95L678.94-21.95Q675.32-17.74 671.30-13.67L671.30-13.67L671.30-13.67Q667.28-9.60 665.13-7.64L665.13-7.64L662.97-5.68L662.97-5.68Q655.62 1.27 652.58 1.27L652.58 1.27L652.58 1.27Q651.21 1.27 651.21-0.49L651.21-0.49L651.21-0.49Q651.21-2.45 652.78-6.42L652.78-6.42L652.78-6.42Q654.35-10.39 655.91-13.33L655.91-13.33L657.48-16.37L657.48-16.37Q665.71-31.75 669.63-36.95L669.63-36.95L669.63-36.95Q671.59-39.49 674.44-41.21L674.44-41.21L674.44-41.21Q677.28-42.92 678.85-42.92L678.85-42.92L678.85-42.92Q679.83-42.92 679.83-42.24L679.83-42.24L679.83-42.24Q679.83-41.85 679.43-41.16L679.43-41.16L679.43-41.16Q679.24-40.77 675.42-34.64L675.42-34.64L675.42-34.64Q671.59-28.52 669.24-24.11L669.24-24.11L669.24-24.11Q662.77-12.25 662.77-10.49L662.77-10.49L662.77-10.49Q662.77-9.80 663.36-9.80L663.36-9.80L663.36-9.80Q664.24-9.80 666.40-11.56L666.40-11.56L666.40-11.56Q672.77-17.05 680.41-26.36L680.41-26.36L680.41-26.36Q684.63-30.87 689.23-38.12L689.23-38.12L689.23-38.12Q690.51-40.08 693.01-41.50L693.01-41.50L693.01-41.50Q695.51-42.92 697.56-42.92L697.56-42.92L697.56-42.92Q698.45-42.92 698.45-42.14L698.45-42.14L697.66-40.28L697.66-40.28Q696.29-37.83 691.54-29.55L691.54-29.55L691.54-29.55Q686.78-21.27 686.20-20.19L686.20-20.19L686.20-20.19Q685.41-18.72 682.62-13.87L682.62-13.87L682.62-13.87Q679.83-9.02 678.65-6.96L678.65-6.96L678.65-6.96Q684.82-11.96 688.84-15.58L688.84-15.58L688.84-15.58Q693.15-20.09 698.94-26.66L698.94-26.66L698.94-26.66Q699.23-26.95 699.43-26.95L699.43-26.95L699.43-26.95Q699.62-26.95 699.62-26.56L699.62-26.56L699.62-26.56Q699.62-24.70 698.15-22.93L698.15-22.93L698.15-22.93Q693.84-18.23 690.70-14.90L690.70-14.90L690.70-14.90Q686.59-10.58 676.00-2.35L676.00-2.35L673.46 2.35L673.46 2.35Q654.54 37.14 647.39 47.63L647.39 47.63L647.39 47.63Q646.70 48.71 645.62 50.23L645.62 50.23L645.62 50.23Q644.55 51.74 642.10 54.34L642.10 54.34L642.10 54.34Q639.65 56.94 638.18 56.94L638.18 56.94L638.18 56.94Q635.82 56.94 635.82 50.18L635.82 50.18L635.82 50.18Q635.82 40.18 642.98 28.42L642.98 28.42L642.98 28.42Q650.72 15.78 666.89 2.45L666.89 2.45L666.89 2.45Q670.12-3.43 675.51-13.92ZM645.43 28.22L645.43 28.22L645.43 28.22Q644.64 29.40 643.57 31.31L643.57 31.31L643.57 31.31Q642.49 33.22 640.63 37.88L640.63 37.88L640.63 37.88Q638.76 42.53 638.76 45.67L638.76 45.67L638.76 45.67Q638.76 47.33 639.35 47.33L639.35 47.33L639.35 47.33Q639.84 47.33 640.82 46.40L640.82 46.40L640.82 46.40Q641.80 45.47 642.49 44.49L642.49 44.49L643.17 43.51L643.17 43.51Q652.88 28.32 664.24 7.25L664.24 7.25L664.24 7.25Q651.50 18.42 645.43 28.22Z" fill="url(#editing-outline-gradient)"></path></g></g><style>text {
  font-size: 64px;
  font-family: Arial Black;
  dominant-baseline: central;
  text-anchor: middle;
}</style></svg>