<?xml version="1.0" encoding="iso-8859-1"?>
<!-- Generator: Adobe Illustrator 19.0.0, SVG Export Plug-In . SVG Version: 6.00 Build 0)  -->
<svg version="1.1" id="Layer_1" xmlns="http://www.w3.org/2000/svg" xmlns:xlink="http://www.w3.org/1999/xlink" x="0px" y="0px"
	 viewBox="0 0 512.002 512.002" style="enable-background:new 0 0 512.002 512.002;" xml:space="preserve">
<g>
	<g>
		<path d="M490.832,272.416c-20.897-13.576-35.254-36.838-50.452-61.466c-1.59-2.576-3.209-5.194-4.85-7.829
			c28.834-81.877-10.957-147.618-12.722-150.465l-11.901-19.205l-69.165,79.344C317.14,102.419,288.769,97.317,256,97.317
			s-61.14,5.103-85.742,15.479l-69.165-79.344L89.191,52.658c-1.763,2.846-41.556,68.587-12.722,150.465
			c-1.641,2.635-3.26,5.252-4.85,7.829c-15.198,24.628-29.554,47.889-50.452,61.466L0,286.169l20.954,14.077
			c1.247,0.838,125.11,84.155,153.263,111.943c8.852,8.737,15.932,17.845,22.78,26.655c15.175,19.521,30.866,39.707,59.004,39.707
			c28.138,0,43.83-20.186,59.004-39.707c6.848-8.809,13.928-17.918,22.78-26.655c28.152-27.788,152.016-111.105,153.263-111.943
			l20.954-14.077L490.832,272.416z M208.671,400.249c-3.389-3.906-7.035-7.864-11.023-11.8
			c-21.811-21.527-91.169-70.116-130.445-97.081c22.1-6.25,54.547-13.032,91.294-13.032c11.425,0,20.061,3.447,27.18,10.846
			C206.78,311.119,209.237,362.415,208.671,400.249z M255.999,445.196c-5.61,0-10.226-2.147-15.171-6.513
			c0.097-3.435,0.248-7.35,0.414-11.623c0.017-0.429,0.033-0.879,0.05-1.314h29.417c0.017,0.435,0.034,0.885,0.05,1.314
			c0.166,4.273,0.317,8.189,0.414,11.623C266.227,443.049,261.609,445.196,255.999,445.196z M314.353,388.45
			c-3.988,3.936-7.634,7.895-11.023,11.8c-0.566-37.834,1.891-89.13,22.994-111.067c7.118-7.399,15.755-10.846,27.181-10.846
			c36.747,0,69.193,6.782,91.294,13.032C405.521,318.332,336.163,366.922,314.353,388.45z"/>
	</g>
</g>
<g>
	<g>
		<path d="M360.456,291.91c-9.304,0-16.851,7.54-16.851,16.84c0,9.301,7.547,16.84,16.851,16.84c9.293,0,16.839-7.54,16.839-16.84
			C377.296,299.45,369.749,291.91,360.456,291.91z"/>
	</g>
</g>
<g>
	<g>
		<path d="M151.555,291.91c-9.304,0-16.851,7.54-16.851,16.84c0,9.301,7.547,16.84,16.851,16.84c9.293,0,16.839-7.54,16.839-16.84
			C168.395,299.45,160.848,291.91,151.555,291.91z"/>
	</g>
</g>
<g>
</g>
<g>
</g>
<g>
</g>
<g>
</g>
<g>
</g>
<g>
</g>
<g>
</g>
<g>
</g>
<g>
</g>
<g>
</g>
<g>
</g>
<g>
</g>
<g>
</g>
<g>
</g>
<g>
</g>
</svg>
